<svg xmlns="http://www.w3.org/2000/svg" viewBox="0 0 512 512" width="512" height="512">
  <rect width="512" height="512" rx="100" fill="#007BFF"/>
  <path d="M128 256c0-70.7 57.3-128 128-128s128 57.3 128 128-57.3 128-128 128c-23.7 0-45.9-6.4-65-17.6l-58 16.6 18-53.7C136.2 308.2 128 283 128 256zm128-96c-53 0-96 43-96 96 0 21 6.8 40.5 18.3 56.4l-10 29.8 32-9.2c16.3 11.5 35.5 19 56.7 19 53 0 96-43 96-96s-43-96-96-96z" fill="white"/>
  <circle cx="208" cy="256" r="16" fill="white"/>
  <circle cx="256" cy="256" r="16" fill="white"/>
  <circle cx="304" cy="256" r="16" fill="white"/>
</svg>
